<svg width="25" height="20" viewBox="0 0 25 20" fill="none" xmlns="http://www.w3.org/2000/svg">
<path d="M16.2772 0C14.258 0 12.5467 1.35397 12.0588 3.17249H1.09001C0.801158 3.17249 0.523199 3.28499 0.318832 3.48352C0.114451 3.68205 0 3.95204 0 4.23262C0 4.51453 0.114451 4.78321 0.318832 4.98173C0.523213 5.18025 0.801165 5.29275 1.09001 5.29275H12.0588C12.5465 7.1126 14.2579 8.47053 16.2772 8.47053C18.2965 8.47053 20.0105 7.1126 20.4996 5.29275H23.91C24.1988 5.29275 24.4768 5.18025 24.6812 4.98173C24.8855 4.7832 25 4.51452 25 4.23262C25 3.95203 24.8855 3.68204 24.6812 3.48352C24.4768 3.28499 24.1988 3.17249 23.91 3.17249H20.4996C20.0104 1.35397 18.2964 0 16.2772 0ZM16.2772 2.11367C17.494 2.11367 18.4573 3.05072 18.4573 4.23263C18.4573 5.41455 17.494 6.35027 16.2772 6.35027C15.0605 6.35027 14.0958 5.41455 14.0958 4.23263C14.0958 3.05072 15.0605 2.11367 16.2772 2.11367ZM8.71881 11.5295C6.69952 11.5295 4.98551 12.8874 4.49648 14.7073H1.09015C0.801297 14.7073 0.523339 14.8197 0.318972 15.0183C0.114591 15.2168 0.000139493 15.4855 0.000139493 15.7674C0.000139493 16.048 0.114591 16.3166 0.318972 16.5152C0.523353 16.7137 0.801304 16.8262 1.09015 16.8262H4.49648C4.98562 18.646 6.6997 20 8.71881 20C10.7381 20 12.4521 18.6447 12.9411 16.8262H23.9113H23.9099C24.1988 16.8262 24.4767 16.7137 24.6811 16.5152C24.8855 16.3166 24.9999 16.048 24.9999 15.7674C24.9999 15.4855 24.8855 15.2168 24.6811 15.0183C24.4767 14.8197 24.1988 14.7073 23.9099 14.7073H12.9398C12.452 12.8874 10.7382 11.5295 8.71881 11.5295ZM8.71881 13.6484C9.93556 13.6484 10.8989 14.5842 10.8989 15.7661C10.8989 16.948 9.93556 17.885 8.71881 17.885C7.50206 17.885 6.5374 16.948 6.5374 15.7661C6.5374 14.5842 7.50206 13.6484 8.71881 13.6484Z" fill="#585D69"/>
</svg>
